<svg width="50" height="44" viewBox="0 0 50 44" fill="none" xmlns="http://www.w3.org/2000/svg">
<path d="M17.0233 43.148C13.8633 43.148 11.0433 42.288 8.56332 40.568C6.12332 38.808 4.22332 36.348 2.86332 33.188C1.50332 29.988 0.823321 26.228 0.823321 21.908C0.823321 17.588 1.50332 13.848 2.86332 10.688C4.22332 7.48796 6.12332 5.02796 8.56332 3.30796C11.0433 1.54796 13.8633 0.667956 17.0233 0.667956C20.2633 0.667956 23.0833 1.54796 25.4833 3.30796C27.9233 5.02796 29.8233 7.48796 31.1833 10.688C32.5433 13.848 33.2233 17.588 33.2233 21.908C33.2233 26.228 32.5433 29.988 31.1833 33.188C29.8233 36.348 27.9233 38.808 25.4833 40.568C23.0833 42.288 20.2633 43.148 17.0233 43.148ZM17.0233 41.288C19.8633 41.288 22.3433 40.508 24.4633 38.948C26.5833 37.388 28.2433 35.168 29.4433 32.288C30.6433 29.368 31.2433 25.908 31.2433 21.908C31.2433 17.868 30.6433 14.408 29.4433 11.528C28.2433 8.64796 26.5833 6.42796 24.4633 4.86796C22.3433 3.30796 19.8633 2.52796 17.0233 2.52796C14.2233 2.52796 11.7433 3.30796 9.58332 4.86796C7.46332 6.42796 5.80332 8.64796 4.60332 11.528C3.44332 14.408 2.86332 17.868 2.86332 21.908C2.86332 25.908 3.44332 29.368 4.60332 32.288C5.80332 35.168 7.46332 37.388 9.58332 38.948C11.7433 40.508 14.2233 41.288 17.0233 41.288ZM47.8797 42.908V1.86796L48.7797 2.76796H37.3197V0.907956H49.8597V42.908H47.8797Z" fill="#1E0606" fill-opacity="0.05"/>
</svg>
