<svg width="106" height="40" viewBox="0 0 106 40" fill="none" xmlns="http://www.w3.org/2000/svg">
<rect width="106" height="40" fill="#C1C1C1"/>
<path d="M30.5234 22.8281C30.5234 23.8594 30.151 24.6719 29.4062 25.2656C28.6667 25.8594 27.6354 26.1562 26.3125 26.1562C25.0938 26.1562 24.0156 25.9271 23.0781 25.4688V23.2188C23.849 23.5625 24.5 23.8047 25.0312 23.9453C25.5677 24.0859 26.0573 24.1562 26.5 24.1562C27.0312 24.1562 27.4375 24.0547 27.7188 23.8516C28.0052 23.6484 28.1484 23.3464 28.1484 22.9453C28.1484 22.7214 28.0859 22.5234 27.9609 22.3516C27.8359 22.1745 27.651 22.0052 27.4062 21.8438C27.1667 21.6823 26.6745 21.4245 25.9297 21.0703C25.2318 20.7422 24.7083 20.4271 24.3594 20.125C24.0104 19.8229 23.7318 19.4714 23.5234 19.0703C23.3151 18.6693 23.2109 18.2005 23.2109 17.6641C23.2109 16.6536 23.5521 15.8594 24.2344 15.2812C24.9219 14.7031 25.8698 14.4141 27.0781 14.4141C27.6719 14.4141 28.237 14.4844 28.7734 14.625C29.3151 14.7656 29.8802 14.9635 30.4688 15.2188L29.6875 17.1016C29.0781 16.8516 28.5729 16.6771 28.1719 16.5781C27.776 16.4792 27.3854 16.4297 27 16.4297C26.5417 16.4297 26.1901 16.5365 25.9453 16.75C25.7005 16.9635 25.5781 17.2422 25.5781 17.5859C25.5781 17.7995 25.6276 17.987 25.7266 18.1484C25.8255 18.3047 25.9818 18.4583 26.1953 18.6094C26.4141 18.7552 26.9271 19.0208 27.7344 19.4062C28.8021 19.9167 29.5339 20.4297 29.9297 20.9453C30.3255 21.4557 30.5234 22.0833 30.5234 22.8281ZM41.8906 14.5781V21.9688C41.8906 22.8125 41.7005 23.5521 41.3203 24.1875C40.9453 24.8229 40.401 25.3099 39.6875 25.6484C38.974 25.987 38.1302 26.1562 37.1562 26.1562C35.6875 26.1562 34.5469 25.7812 33.7344 25.0312C32.9219 24.276 32.5156 23.2448 32.5156 21.9375V14.5781H34.9297V21.5703C34.9297 22.4505 35.1068 23.0964 35.4609 23.5078C35.8151 23.9193 36.401 24.125 37.2188 24.125C38.0104 24.125 38.5833 23.9193 38.9375 23.5078C39.2969 23.0911 39.4766 22.4401 39.4766 21.5547V14.5781H41.8906ZM44.6875 14.5781H48.2422C49.862 14.5781 51.0365 14.8099 51.7656 15.2734C52.5 15.7318 52.8672 16.4635 52.8672 17.4688C52.8672 18.151 52.7057 18.7109 52.3828 19.1484C52.0651 19.5859 51.6406 19.849 51.1094 19.9375V20.0156C51.8333 20.1771 52.3542 20.4792 52.6719 20.9219C52.9948 21.3646 53.1562 21.9531 53.1562 22.6875C53.1562 23.7292 52.7786 24.5417 52.0234 25.125C51.2734 25.7083 50.2526 26 48.9609 26H44.6875V14.5781ZM47.1094 19.1016H48.5156C49.1719 19.1016 49.6458 19 49.9375 18.7969C50.2344 18.5938 50.3828 18.2578 50.3828 17.7891C50.3828 17.3516 50.2214 17.0391 49.8984 16.8516C49.5807 16.6589 49.0755 16.5625 48.3828 16.5625H47.1094V19.1016ZM47.1094 21.0234V24H48.6875C49.3542 24 49.8464 23.8724 50.1641 23.6172C50.4818 23.362 50.6406 22.9714 50.6406 22.4453C50.6406 21.4974 49.9635 21.0234 48.6094 21.0234H47.1094ZM60.2734 26L57.5234 17.0391H57.4531C57.5521 18.862 57.6016 20.0781 57.6016 20.6875V26H55.4375V14.5781H58.7344L61.4375 23.3125H61.4844L64.3516 14.5781H67.6484V26H65.3906V20.5938C65.3906 20.3385 65.3932 20.0443 65.3984 19.7109C65.4089 19.3776 65.4453 18.4922 65.5078 17.0547H65.4375L62.4922 26H60.2734ZM70.5312 26V14.5781H72.9531V26H70.5312ZM80.2344 26H77.8125V16.5938H74.7109V14.5781H83.3359V16.5938H80.2344V26Z" fill="#E1E1E1"/>
</svg>
