<svg width="81" height="40" viewBox="0 0 81 40" fill="none" xmlns="http://www.w3.org/2000/svg">
<rect width="81" height="40" fill="black"/>
<path d="M22.5703 29.3594C22.0234 29.3594 21.5469 29.3021 21.1406 29.1875V27.1719C21.5573 27.276 21.9375 27.3281 22.2812 27.3281C22.8125 27.3281 23.1927 27.1615 23.4219 26.8281C23.651 26.5 23.7656 25.9844 23.7656 25.2812V14.5781H26.1875V25.2656C26.1875 26.599 25.8828 27.6146 25.2734 28.3125C24.6641 29.0104 23.763 29.3594 22.5703 29.3594ZM39.4297 20.2734C39.4297 22.1641 38.9609 23.6172 38.0234 24.6328C37.0859 25.6484 35.7422 26.1562 33.9922 26.1562C32.2422 26.1562 30.8984 25.6484 29.9609 24.6328C29.0234 23.6172 28.5547 22.1589 28.5547 20.2578C28.5547 18.3568 29.0234 16.9062 29.9609 15.9062C30.9036 14.901 32.2526 14.3984 34.0078 14.3984C35.763 14.3984 37.1042 14.9036 38.0312 15.9141C38.9635 16.9245 39.4297 18.3776 39.4297 20.2734ZM31.0938 20.2734C31.0938 21.5495 31.3359 22.5104 31.8203 23.1562C32.3047 23.8021 33.0286 24.125 33.9922 24.125C35.9245 24.125 36.8906 22.8411 36.8906 20.2734C36.8906 17.7005 35.9297 16.4141 34.0078 16.4141C33.0443 16.4141 32.3177 16.7396 31.8281 17.3906C31.3385 18.0365 31.0938 18.9974 31.0938 20.2734ZM41.7969 26V14.5781H44.2188V26H41.7969ZM57.2266 26H54.1484L49.1797 17.3594H49.1094C49.2083 18.8854 49.2578 19.974 49.2578 20.625V26H47.0938V14.5781H50.1484L55.1094 23.1328H55.1641C55.0859 21.6484 55.0469 20.599 55.0469 19.9844V14.5781H57.2266V26Z" fill="white"/>
</svg>
